HIERARCHY
ROOT ROOT
{
	OFFSET 0.000000 56.020000 -5.659234
	CHANNELS 6 Xposition Yposition Zposition Xrotation Yrotation Zrotation 
	JOINT C_spine0001_bind_JNT
	{
		OFFSET 0.000000 1.618999 0.000000
		CHANNELS 3 Xrotation Yrotation Zrotation
		JOINT C_spine0002_bind_JNT
		{
			OFFSET 0.000000 4.942001 0.000001
			CHANNELS 3 Xrotation Yrotation Zrotation
			JOINT C_spine0003_bind_JNT
			{
				OFFSET 0.000000 4.942001 -0.000000
				CHANNELS 3 Xrotation Yrotation Zrotation
				JOINT C_neck0001_bind_JNT
				{
					OFFSET 0.000000 17.026009 -0.000000
					CHANNELS 3 Xrotation Yrotation Zrotation
					JOINT C_neck0002_bind_JNT
					{
						OFFSET 0.000000 3.249985 0.000000
						CHANNELS 3 Xrotation Yrotation Zrotation
						JOINT C_head_bind_JNT
						{
							OFFSET 0.000000 5.278008 0.000000
							CHANNELS 3 Xrotation Yrotation Zrotation
							End Site
							{
								OFFSET 0.000000 0.000000 0.000000
							}
						}
					}
				}
				JOINT L_clavicle_bind_JNT
				{
					OFFSET 4.590000 12.067001 0.834000
					CHANNELS 3 Xrotation Yrotation Zrotation
					JOINT L_armUpper0001_bind_JNT
					{
						OFFSET 7.812635 0.512001 -3.452945
						CHANNELS 3 Xrotation Yrotation Zrotation
						JOINT L_armLower0001_bind_JNT
						{
							OFFSET 15.265892 -6.552116 -0.058157
							CHANNELS 3 Xrotation Yrotation Zrotation
							JOINT L_hand0001_bind_JNT
							{
								OFFSET 14.747667 -6.369995 5.049225
								CHANNELS 3 Xrotation Yrotation Zrotation
								End Site
								{
									OFFSET 0.000000 0.000000 0.000000
								}
							}
						}
					}
				}
				JOINT R_clavicle_bind_JNT
				{
					OFFSET -4.590000 12.067001 0.834000
					CHANNELS 3 Xrotation Yrotation Zrotation
					JOINT R_armUpper0001_bind_JNT
					{
						OFFSET -7.812635 0.512001 -3.452945
						CHANNELS 3 Xrotation Yrotation Zrotation
						JOINT R_armLower0001_bind_JNT
						{
							OFFSET -15.265890 -6.552124 -0.058160
							CHANNELS 3 Xrotation Yrotation Zrotation
							JOINT R_hand0001_bind_JNT
							{
								OFFSET -14.746784 -6.369629 5.048937
								CHANNELS 3 Xrotation Yrotation Zrotation
								End Site
								{
									OFFSET 0.000000 0.000000 0.000000
								}
							}
						}
					}
				}
			}
		}
	}
	JOINT C_pelvis0001_bind_JNT
	{
		OFFSET -0.000000 0.000000 0.000000
		CHANNELS 3 Xrotation Yrotation Zrotation
		JOINT L_legUpper0001_bind_JNT
		{
			OFFSET 6.599999 -6.027000 0.539000
			CHANNELS 3 Xrotation Yrotation Zrotation
			JOINT L_legLower0001_bind_JNT
			{
				OFFSET -0.140713 -19.187443 0.040261
				CHANNELS 3 Xrotation Yrotation Zrotation
				JOINT L_foot0001_bind_JNT
				{
					OFFSET -0.132215 -18.028637 -1.138370
					CHANNELS 3 Xrotation Yrotation Zrotation
					JOINT L_foot0002_bind_JNT
					{
						OFFSET 0.007014 -4.693133 9.886524
						CHANNELS 3 Xrotation Yrotation Zrotation
						End Site
						{
							OFFSET 0.000000 0.000000 0.000000
						}
					}
				}
			}
		}
		JOINT R_legUpper0001_bind_JNT
		{
			OFFSET -6.599999 -6.027000 0.539000
			CHANNELS 3 Xrotation Yrotation Zrotation
			JOINT R_legLower0001_bind_JNT
			{
				OFFSET 0.140710 -19.187164 0.040550
				CHANNELS 3 Xrotation Yrotation Zrotation
				JOINT R_foot0001_bind_JNT
				{
					OFFSET 0.132215 -18.028633 -1.138362
					CHANNELS 3 Xrotation Yrotation Zrotation
					JOINT R_foot0002_bind_JNT
					{
						OFFSET -0.007014 -4.693128 9.886505
						CHANNELS 3 Xrotation Yrotation Zrotation
						End Site
						{
							OFFSET 0.000000 0.000000 0.000000
						}
					}
				}
			}
		}
	}
}
MOTION
Frames: 16
Frame Time: 0.033333
0.000000 49.046627 0.000000 0.001122 -15.982876 -0.006385 5.699971 17.725637 -2.450218 -5.273127 3.088816 -1.549532 3.549577 2.834033 -2.141100 10.276735 -9.616988 1.426437 -0.084075 -0.802745 0.382036 -19.778654 -17.719193 -2.111937 13.398853 4.764835 8.648018 -9.213876 10.075140 -69.732643 -8.099700 16.231575 3.690345 -3.602691 -23.119141 -11.583400 10.448443 -2.347668 -13.540627 -29.838446 12.775439 74.917694 2.706537 -18.334639 2.895993 0.708149 13.939724 21.450686 7.810767 12.158017 -0.087099 -23.713306 3.472605 2.755608 -21.859931 -4.189809 -0.985906 1.028223 -9.738775 -6.166980 -2.417364 -1.735462 -1.534266 0.679300 -1.361027 5.084007 1.644526 -4.307157 1.976545 -8.292243 -0.698830 -5.231055 -1.744290 0.234601 -1.327527
-0.209628 48.860611 0.772881 0.032699 -15.333514 -0.034391 5.562703 17.682308 -2.478675 -4.577126 3.072519 -1.746868 3.282993 2.598064 -2.406958 10.675037 -10.509204 1.650635 -0.371196 -0.332479 0.131893 -18.217112 -19.287165 -1.368556 14.165717 4.824275 8.577339 -10.034244 10.750145 -69.100327 -7.016923 18.225452 3.133271 -4.126238 -23.382059 -10.735427 10.591379 -2.423572 -13.803273 -30.122402 12.999628 75.933304 2.811571 -17.017040 2.633782 -0.129073 13.221743 22.497652 8.604361 11.996938 -0.294420 -24.147295 3.910790 1.493652 -25.303254 -4.044077 -0.930094 0.244960 -9.949505 -6.407496 -1.054514 -1.514573 -1.774369 0.276322 -1.035765 4.573402 1.856842 -4.741759 2.078100 -8.481215 -1.037632 -5.419425 -2.180588 0.119943 -1.229681
-0.550064 48.797352 1.487082 0.014036 -14.834396 -0.015093 5.666502 16.677301 -2.944018 -4.422877 3.197273 -1.956617 3.481960 2.815578 -2.522021 10.088335 -10.973026 1.794851 -0.106769 0.010932 0.315294 -18.319689 -20.689358 -1.252391 13.686590 4.615313 8.520676 -9.468822 11.669106 -69.194908 -8.130576 18.549536 3.759136 -4.904741 -23.871536 -11.368684 10.441747 -2.443327 -13.281915 -30.889460 13.012482 75.754044 3.879591 -16.213139 2.244758 0.132853 12.700999 23.148186 8.503810 10.643414 -0.249036 -24.847763 4.957446 1.853576 -27.329876 -4.254233 -0.875898 0.890119 -10.759576 -7.722614 -0.517909 -1.471603 -2.099894 1.635002 0.213461 5.307179 1.842747 -4.720068 1.902125 -8.818188 -0.732211 -5.777101 -3.229509 -0.259164 -1.511451
-0.693948 48.772369 2.299133 0.024743 -15.374714 -0.021476 5.853482 16.659550 -3.498730 -4.280043 3.454868 -1.967708 3.741100 2.808738 -2.667849 10.068323 -11.229033 1.966948 -0.204748 0.040536 0.303973 -18.513115 -21.309029 -1.148292 13.450878 4.372380 8.200748 -8.662135 12.295837 -69.064163 -8.639391 18.524981 3.844949 -5.460816 -23.935644 -11.682569 10.068267 -2.279121 -13.051870 -31.182892 13.588367 75.815559 4.506516 -15.196339 2.342530 0.337243 12.211289 23.501936 8.566498 10.216048 -0.296789 -25.110811 5.580658 1.483173 -28.144823 -4.604064 -0.914817 1.256156 -10.982296 -8.183275 0.331596 -1.458502 -2.120770 2.176908 0.753986 5.429842 2.106631 -4.586873 1.967685 -9.084288 -0.728167 -5.761078 -3.784156 -0.005820 -1.732658
-0.908854 48.701031 3.176252 0.025024 -15.769451 -0.012524 6.289231 16.247292 -3.970666 -4.151835 3.497908 -2.113281 3.644540 2.899204 -2.857830 9.726205 -11.225013 1.941414 -0.131079 0.128424 0.374855 -18.774227 -21.583826 -1.330486 13.247907 4.173322 7.846557 -8.004364 12.844561 -68.586922 -8.984140 18.439390 3.822379 -5.788368 -24.053272 -12.284011 9.887371 -1.900553 -12.738302 -31.266998 13.753655 75.676399 5.307766 -14.397995 2.587703 0.481770 12.216146 23.822243 8.959293 9.622862 -0.233411 -25.549803 6.079366 0.854729 -27.838007 -4.666626 -0.798351 2.240353 -11.311147 -7.741300 0.490801 -1.536032 -1.788722 2.510737 1.051151 5.443673 2.682103 -4.532200 1.883921 -9.529602 -0.319100 -5.568673 -4.565740 -0.094279 -2.103851
-1.112311 48.602859 4.108093 0.023522 -16.354437 -0.019458 6.782943 15.905743 -4.485932 -4.253329 3.558992 -2.271430 3.594383 2.860718 -2.991108 9.766253 -11.167650 1.890017 -0.187937 0.127999 0.304544 -19.141960 -21.622665 -1.479764 13.141107 3.989099 7.486863 -7.748576 13.378376 -68.083214 -9.125233 18.419374 4.047664 -6.171772 -23.995098 -12.837568 9.987893 -1.655993 -12.527970 -31.620018 14.134691 75.886017 6.098948 -13.640304 2.774847 0.370836 11.920041 24.021614 9.087616 9.159095 -0.283841 -25.533199 6.107805 0.356084 -26.848759 -4.887912 -0.377028 3.218580 -11.528149 -6.847202 0.578756 -1.561017 -1.332741 3.008035 1.069260 5.498516 2.953543 -4.351845 1.591258 -9.876066 -0.217416 -5.056807 -4.882629 0.294285 -2.173588
-1.270137 48.505024 5.144235 0.022283 -16.339874 -0.009886 7.198411 15.020377 -4.851024 -4.356420 3.616734 -2.457497 3.557337 2.852792 -3.235138 9.408804 -11.275360 1.951496 0.021413 0.103044 0.342200 -19.425228 -21.772957 -1.619923 13.156055 3.927341 7.441888 -7.699141 13.811449 -67.742737 -8.953064 18.275547 3.783059 -6.200506 -23.955187 -12.941714 9.896382 -1.539765 -12.277022 -31.557737 14.464629 76.237915 6.699069 -12.986279 3.051282 0.447696 11.958764 23.609325 9.392613 8.239904 -0.281449 -25.198975 5.877953 -0.049069 -26.148055 -4.948955 -0.233570 4.692866 -11.282365 -4.780631 0.900883 -1.621725 -0.869579 3.675445 0.840851 5.300728 3.419629 -4.059793 1.223669 -10.404297 0.277633 -4.174767 -5.573616 0.178076 -2.370415
-1.391833 48.412586 6.256763 0.026902 -17.055120 -0.030271 7.443210 14.760095 -5.103006 -4.461376 3.610123 -2.672118 3.507816 2.937127 -3.746141 9.497785 -11.425604 1.937357 -0.168797 0.199516 0.369778 -19.356556 -22.156303 -1.649302 13.101993 3.735569 7.566714 -7.499619 14.324631 -67.449051 -9.067515 18.318317 4.153566 -6.880892 -23.765175 -13.494705 10.203278 -1.512138 -12.261156 -31.862452 14.580100 76.919189 7.164825 -12.440114 3.326621 0.658228 11.889038 23.301476 9.595967 7.759213 -0.087350 -24.876341 5.232629 -0.578063 -24.903867 -5.153931 0.190333 5.026420 -10.142861 -2.720685 1.132989 -1.395867 -0.977814 4.444921 0.549250 4.857310 3.864779 -3.850471 1.035913 -10.760560 0.829616 -3.415663 -6.245437 0.288320 -2.532037
-1.386375 48.361103 7.531076 0.027276 -17.432409 -0.018315 7.570087 13.946236 -5.363231 -4.492404 3.690867 -2.922214 3.477725 2.995000 -4.080100 9.319995 -11.422816 1.887957 -0.186509 0.148280 0.351848 -19.310183 -22.145306 -1.517517 13.217196 3.744143 7.644140 -7.721976 14.671576 -67.227989 -8.740689 18.401758 4.311760 -7.120936 -23.748421 -13.462229 10.312334 -1.462580 -12.319245 -31.715624 14.485202 77.545418 7.534785 -11.383430 3.443683 0.824619 11.562250 23.025822 9.862798 6.820349 -0.076724 -24.404955 4.250016 -0.721905 -23.526707 -4.809618 -0.040619 4.914605 -9.168315 -1.296274 0.636316 -1.187572 -0.809461 4.931898 -0.029766 4.300044 5.305274 -3.458794 0.716214 -11.066640 1.346691 -2.209477 -7.927833 0.643498 -2.790537
-1.302929 48.425964 8.757458 0.025749 -18.110344 -0.012629 7.564713 13.312546 -5.423092 -4.637601 3.782674 -3.042652 3.491583 3.017962 -4.456538 9.221033 -11.405089 1.763583 -0.111027 0.139456 0.407645 -19.376814 -22.230650 -1.620819 13.142861 3.863901 7.758243 -7.851628 14.776702 -67.260056 -8.720106 18.643990 4.882082 -7.411526 -23.599041 -13.621298 10.748743 -1.391272 -12.645928 -31.719444 14.021369 78.245819 8.268735 -10.755419 3.773086 0.633021 11.615676 22.866812 10.035844 6.004162 0.337945 -23.755434 3.486504 -1.401464 -22.214702 -4.139640 -0.190699 3.618826 -8.202911 -0.525237 0.513665 -1.143799 -0.611566 4.856885 -0.675146 3.489273 7.435686 -2.933797 0.694063 -10.633929 1.889483 -1.177774 -10.438993 1.074489 -3.349020
-1.254197 48.542896 10.029830 0.025202 -18.368830 -0.016644 7.601794 12.228682 -5.378275 -4.756382 3.771798 -3.173467 3.283306 3.084994 -4.620752 9.138792 -11.176672 1.799121 -0.021057 0.068996 0.328880 -19.371029 -21.623730 -1.455326 13.374620 3.744713 7.947943 -8.420835 14.888958 -67.426125 -8.517018 19.265909 5.274213 -7.502942 -23.766092 -13.384333 11.123091 -1.287930 -12.618620 -31.182022 13.760055 78.435043 8.674979 -9.844488 3.985600 0.252766 11.742408 22.847092 10.322038 5.047883 0.690269 -22.910027 2.717820 -1.951433 -21.070406 -3.564000 -0.374176 1.755835 -7.114261 -0.057992 0.375717 -0.929587 -0.417872 4.216668 -1.577797 2.350186 10.393379 -2.463667 0.692285 -9.633632 2.827257 0.280358 -13.962040 1.505735 -4.263206
-1.184653 48.656948 11.190563 0.031157 -18.865828 -0.025734 7.496487 11.116573 -5.262625 -4.881453 3.762210 -3.261496 3.117848 2.993703 -4.663044 8.982956 -10.929421 1.607880 -0.062913 0.080318 0.313908 -19.559576 -21.324032 -1.582057 13.285625 3.799766 8.018457 -8.760836 14.551794 -67.597725 -8.520177 19.861958 5.948984 -7.836621 -23.731398 -13.117586 11.382298 -1.098266 -13.060017 -30.355165 13.157935 78.953339 8.865252 -9.235456 4.079812 0.224553 12.022201 22.764519 10.175846 4.107572 1.080818 -21.761116 2.363768 -2.483932 -20.100012 -2.805920 -0.685847 0.172782 -6.159266 0.480984 0.288548 -0.919151 -0.118303 3.947722 -2.091814 1.005672 13.366372 -1.803560 0.822583 -7.688012 3.747206 1.249890 -18.454222 2.046582 -5.049511
-1.122353 48.792160 12.273950 0.025342 -19.203529 -0.019134 7.325822 9.653952 -4.991634 -4.957959 3.632011 -3.287890 2.994773 2.941203 -4.702359 8.768219 -10.576585 1.465078 -0.079598 -0.015722 0.266844 -19.800102 -20.436941 -1.581999 13.395744 3.785442 8.096480 -9.516352 14.076342 -67.977921 -8.282713 20.866989 6.799185 -8.351506 -24.286983 -12.839963 11.582100 -1.039052 -13.145910 -29.534618 12.638138 79.049072 9.102098 -8.388799 3.990552 0.132309 11.976120 23.052399 10.225883 2.833100 1.340297 -20.751089 2.209133 -2.741111 -19.398389 -2.215852 -0.843046 -1.002218 -5.211804 0.911365 -0.023602 -0.717357 0.052679 2.798782 -2.654089 -0.199228 16.873474 -0.999036 0.319651 -5.126065 4.974561 2.270937 -23.421497 2.370382 -5.572257
-1.053460 48.849842 13.332430 0.025958 -19.849529 -0.024281 6.929798 8.232229 -4.756961 -4.946178 3.426821 -3.164750 2.807334 2.901591 -4.774071 8.631580 -10.114303 1.375691 -0.031571 -0.038379 0.243382 -20.238735 -19.429707 -1.919956 13.301636 3.879970 8.380478 -9.866249 13.437792 -68.321068 -7.876435 21.407566 7.148899 -8.418335 -24.418373 -12.173744 11.800283 -0.950862 -13.398892 -28.464991 11.626094 79.437080 9.414714 -7.926929 3.777558 0.091877 12.234155 23.413507 10.038392 1.742956 1.785989 -19.252720 2.288791 -3.170959 -19.661891 -1.499114 -1.103976 -1.487166 -4.417002 1.421246 -0.356262 -0.498838 0.173867 1.470583 -3.273093 -1.586138 20.653839 -0.330045 -0.240437 -1.608636 6.228243 2.239988 -29.029037 2.591188 -5.275492
-0.919240 48.853775 14.306212 0.030017 -20.061653 -0.028159 6.642644 6.210495 -4.297305 -5.012024 3.234839 -3.069473 2.620398 2.593145 -4.669595 8.546925 -9.371679 1.057097 -0.132191 0.004497 0.294144 -20.815380 -17.931581 -2.170719 13.220807 3.939480 8.943985 -10.274794 12.392813 -69.125092 -7.832364 21.860031 7.707850 -8.101571 -24.571270 -11.472260 12.014055 -1.005828 -13.801668 -27.658894 10.967175 79.622864 9.024845 -7.532517 3.706266 0.393864 12.189524 23.835100 9.810786 0.254190 2.250653 -17.670340 2.437883 -3.752990 -20.335699 -0.621881 -1.385411 -1.691147 -3.599782 1.855798 -0.602497 -0.437053 0.514446 -1.040026 -3.932765 -3.395060 25.847721 0.388617 -0.851801 2.283701 7.780675 2.696878 -32.898903 2.565191 -5.503020
-0.885556 48.808987 15.092958 0.029718 -20.189354 -0.022062 6.153957 3.977882 -3.670778 -4.999728 2.771379 -2.996367 2.552603 2.227255 -4.643089 8.313770 -8.488441 0.832714 -0.048271 -0.005396 0.229875 -21.154001 -16.116600 -1.998515 13.159995 4.253687 9.457536 -11.499865 10.634331 -69.495590 -7.494218 22.268972 8.306793 -7.861321 -24.277517 -10.783192 11.991532 -1.043173 -14.467427 -26.471258 9.858066 79.938065 9.015496 -7.102874 3.747046 0.348940 11.887106 24.048628 9.384641 -1.343817 3.134676 -15.883908 2.585922 -4.586338 -20.789776 0.292527 -1.785447 -2.253859 -2.720257 2.272682 -0.979201 -0.078575 0.799499 -3.930845 -4.712152 -5.504438 31.516459 0.813248 -1.492390 6.009504 9.190069 2.868006 -33.416061 2.417910 -5.295405
